#format: frame checksums
#version: 2
#hash: MD5
#tb 0: 1001/30000
#media_type 0: video
#codec_id 0: rawvideo
#dimensions 0: 196x208
#sar 0: 1/1
#stream#, dts,        pts, duration,     size, hash
0,          0,          0,        1,    61152, efa2a2a76a0fe709a78e491346cfcf29
0,          1,          1,        1,    61152, 97de85e21b408878853fa870104707d7
0,          2,          2,        1,    61152, 419bd1157e156d3059190d6b561c57dd
0,          3,          3,        1,    61152, fbb6e01c524fc7c8007c6cfe2c64f467
0,          4,          4,        1,    61152, 7453994c2e9901fa23f295ec0b556f9c
0,          5,          5,        1,    61152, ba39dc984789fa2c4b833cd88013cc97
0,          6,          6,        1,    61152, cea5061cac1be18d5f9a9301a5460491
0,          7,          7,        1,    61152, 1c583018c425b1a91949e0c3eb0a4152
0,          8,          8,        1,    61152, b48be02280ac6f97731af69bcf18de25
0,          9,          9,        1,    61152, 6f8ab465214d8374c9ff77b939da333e
